<svg width="8" height="8" viewBox="0 0 8 8" fill="none" xmlns="http://www.w3.org/2000/svg">
<g clip-path="url(#clip0_2_440)">
<path d="M3.97529 2.14366C3.04963 2.14366 2.30298 2.88645 2.30298 3.80735C2.30298 4.72824 3.04963 5.47103 3.97529 5.47103C4.90095 5.47103 5.64759 4.72824 5.64759 3.80735C5.64759 2.88645 4.90095 2.14366 3.97529 2.14366ZM3.97529 4.88896C3.3771 4.88896 2.88807 4.4039 2.88807 3.80735C2.88807 3.21079 3.37564 2.72573 3.97529 2.72573C4.57493 2.72573 5.0625 3.21079 5.0625 3.80735C5.0625 4.4039 4.57347 4.88896 3.97529 4.88896ZM6.10606 2.07561C6.10606 2.29135 5.9314 2.46365 5.716 2.46365C5.49914 2.46365 5.32594 2.2899 5.32594 2.07561C5.32594 1.86131 5.50059 1.68756 5.716 1.68756C5.9314 1.68756 6.10606 1.86131 6.10606 2.07561ZM7.21365 2.46945C7.18891 1.94963 7.06956 1.48919 6.68678 1.10983C6.30545 0.730466 5.84262 0.611734 5.32012 0.585671C4.7816 0.555265 3.16752 0.555265 2.629 0.585671C2.10795 0.610286 1.64512 0.729018 1.26234 1.10838C0.879559 1.48774 0.761669 1.94819 0.735471 2.468C0.704906 3.00374 0.704906 4.60951 0.735471 5.14525C0.760213 5.66506 0.879559 6.1255 1.26234 6.50486C1.64512 6.88423 2.1065 7.00296 2.629 7.02902C3.16752 7.05943 4.7816 7.05943 5.32012 7.02902C5.84262 7.00441 6.30545 6.88567 6.68678 6.50486C7.0681 6.1255 7.18745 5.66506 7.21365 5.14525C7.24421 4.60951 7.24421 3.00519 7.21365 2.46945ZM6.51795 5.72008C6.40442 6.00388 6.18465 6.22252 5.89793 6.3369C5.46857 6.50631 4.44976 6.46722 3.97529 6.46722C3.50081 6.46722 2.48055 6.50486 2.05265 6.3369C1.76738 6.22396 1.54761 6.00532 1.43263 5.72008C1.26234 5.29294 1.30164 4.27938 1.30164 3.80735C1.30164 3.33532 1.2638 2.32031 1.43263 1.89461C1.54615 1.61082 1.76592 1.39218 2.05265 1.27779C2.482 1.10838 3.50081 1.14747 3.97529 1.14747C4.44976 1.14747 5.47003 1.10983 5.89793 1.27779C6.1832 1.39073 6.40297 1.60937 6.51795 1.89461C6.68823 2.32176 6.64894 3.33532 6.64894 3.80735C6.64894 4.27938 6.68823 5.29438 6.51795 5.72008Z" fill="white"/>
</g>
<defs>
<clipPath id="clip0_2_440">
<rect width="6.58976" height="7.41348" fill="white" transform="translate(0.731049 0.101807)"/>
</clipPath>
</defs>
</svg>
