<svg width="16" height="15" viewBox="0 0 16 15" fill="none" xmlns="http://www.w3.org/2000/svg">
<g clip-path="url(#clip0_2_435)" filter="url(#filter0_d_2_435)">
<path d="M6.42491 6.69157V2.52335H5.02697V6.69157H6.42491ZM5.72612 1.95391C6.2136 1.95391 6.51704 1.63384 6.51704 1.23386C6.50796 0.824859 6.21362 0.513672 5.73537 0.513672C5.25719 0.513672 4.9445 0.824865 4.9445 1.23386C4.9445 1.63386 5.24786 1.95391 5.71699 1.95391H5.72608H5.72612ZM7.19866 6.69157H8.59659V4.36384C8.59659 4.23926 8.60567 4.11481 8.64259 4.02576C8.74365 3.77686 8.97366 3.51906 9.35983 3.51906C9.86568 3.51906 10.0681 3.9013 10.0681 4.46164V6.69154H11.4659V4.30153C11.4659 3.02121 10.7762 2.4255 9.85648 2.4255C9.10235 2.4255 8.77124 2.84326 8.58729 3.12779H8.59662V2.52327H7.19869C7.21703 2.91439 7.19869 6.69149 7.19869 6.69149L7.19866 6.69157Z" fill="white"/>
</g>
<defs>
<filter id="filter0_d_2_435" x="0.961761" y="0.513916" width="14.5898" height="14.1779" filterUnits="userSpaceOnUse" color-interpolation-filters="sRGB">
<feFlood flood-opacity="0" result="BackgroundImageFix"/>
<feColorMatrix in="SourceAlpha" type="matrix" values="0 0 0 0 0 0 0 0 0 0 0 0 0 0 0 0 0 0 127 0" result="hardAlpha"/>
<feOffset dy="4"/>
<feGaussianBlur stdDeviation="2"/>
<feComposite in2="hardAlpha" operator="out"/>
<feColorMatrix type="matrix" values="0 0 0 0 0 0 0 0 0 0 0 0 0 0 0 0 0 0 0.25 0"/>
<feBlend mode="normal" in2="BackgroundImageFix" result="effect1_dropShadow_2_435"/>
<feBlend mode="normal" in="SourceGraphic" in2="effect1_dropShadow_2_435" result="shape"/>
</filter>
<clipPath id="clip0_2_435">
<rect width="6.58976" height="6.1779" fill="white" transform="translate(4.96176 0.513916)"/>
</clipPath>
</defs>
</svg>
